<svg width="231" height="231" viewBox="0 0 231 231" fill="none" xmlns="http://www.w3.org/2000/svg">
<g clip-path="url(#clip0)">
<path d="M175.776 118.575V42.6592C175.776 29.6474 163.144 1.0909e-05 118.005 1.0909e-05C72.5123 -0.360927 48.3222 27.8391 48.3222 53.5054L86.2207 56.7538C86.2207 56.7538 94.5222 31.0876 114.374 31.0876C134.225 31.0876 132.782 46.9941 132.782 50.2461C132.367 55.8992 132.247 61.5699 132.421 67.2354C107.516 67.9573 45.0449 75.1761 45.0449 127.967C45.0449 184.36 116.171 186.89 139.639 150.381C140.484 151.989 141.581 153.451 142.888 154.712C151.55 163.736 163.1 174.593 163.1 174.593L192.336 145.674C192.336 145.674 175.776 132.673 175.776 118.575ZM132.464 112.078C132.464 153.651 89.1515 147.143 89.1515 121.102C89.1515 96.8828 115.139 91.8189 132.464 91.458V112.078Z" fill="#202020"/>
<path d="M199.959 190.149C104.643 235.335 45.7886 197.368 7.87936 174.604C5.71373 173.16 1.38248 174.965 4.99186 178.935C17.6319 194.127 58.7932 231 112.591 231C166.389 231 198.516 201.356 202.486 196.296C206.817 191.236 203.93 188.344 199.959 190.149V190.149Z" fill="#202020"/>
<path d="M226.669 175.329C224.142 172.081 211.148 171.359 202.847 172.442C194.545 173.524 182.273 178.577 183.356 181.465C183.717 182.548 185.161 182.187 190.575 181.465C196.35 180.743 211.87 178.938 215.48 183.27C218.728 187.601 210.426 208.214 208.983 211.466C207.539 214.718 209.705 215.797 212.231 213.271C217.132 208.829 220.853 203.239 223.059 197.003C226.669 189.427 228.473 177.859 226.669 175.329Z" fill="#202020"/>
</g>
<defs>
<clipPath id="clip0">
<rect width="231" height="231" fill="white"/>
</clipPath>
</defs>
</svg>
