<svg width="250" height="250" viewBox="0 0 250 250" fill="none" xmlns="http://www.w3.org/2000/svg">
<path d="M90.4565 250C53.249 249.786 22.4717 173.833 22.4717 135.151C22.4717 71.9658 69.8716 58.1328 88.1392 58.1328C96.3716 58.1328 105.162 61.3657 112.916 64.2266C118.337 66.2222 123.945 68.2822 127.063 68.2822C128.93 68.2822 133.329 66.5298 137.213 64.9922C145.496 61.6948 155.802 57.5967 167.804 57.5967C167.826 57.5967 167.854 57.5967 167.875 57.5967C176.837 57.5967 204.01 59.5635 220.347 84.0967L224.173 89.8472L218.666 94.0029C210.798 99.9395 196.443 110.769 196.443 132.219C196.443 157.625 212.701 167.396 220.511 172.095C223.959 174.169 227.528 176.308 227.528 180.985C227.528 184.04 203.152 249.621 167.754 249.621C159.092 249.621 152.97 247.018 147.569 244.722C142.105 242.397 137.391 240.395 129.602 240.395C125.654 240.395 120.661 242.261 115.375 244.243C108.152 246.938 99.9766 250 90.6997 250H90.4565Z" fill="black"/>
<path d="M171.554 0C172.476 33.2402 148.704 56.3008 124.96 54.8545C121.047 28.3276 148.701 0 171.554 0Z" fill="black"/>
</svg>
