<svg width="100" height="100" viewBox="0 0 100 100" fill="none" xmlns="http://www.w3.org/2000/svg">
<path d="M12.7215 97.7876H26.3383C26.5276 99.029 27.5108 99.9999 28.7524 99.9999H59.7111C60.9574 99.9999 61.9359 99.0338 62.1252 97.7876H75.742C78.0453 97.7876 79.9102 95.8361 79.9102 93.4257H8.55798C8.55798 95.8361 10.4228 97.7876 12.7215 97.7876Z" fill="white"/>
<path d="M96.3102 52.9565C92.8391 50.0147 87.9509 49.9664 84.7336 50.3384C84.8259 47.9908 84.8767 45.59 84.8767 43.0927H0C0 67.1 3.47114 84.422 25.4381 90.8852H59.4386C68.1395 88.3299 73.9094 84.0356 77.7359 78.326C86.0722 78.1569 99.4813 74.7225 99.9845 62.6754C100.201 57.4005 98.1058 54.4732 96.3102 52.9565ZM81.2302 71.4378C82.8272 67.1435 83.7735 62.3131 84.2951 57.0044C86.5476 56.618 90.4296 56.3716 92.3913 58.0429C92.7514 58.3521 93.873 59.3085 93.7438 62.3952C93.4807 68.6361 86.0768 70.7325 81.2302 71.4378Z" fill="white"/>
<path d="M34.5771 39.7208C34.5771 39.7208 50.7327 38.4794 43.3288 24.2247C37.3836 12.7814 38.7407 6.06705 46.3476 0C46.3476 0 21.4311 6.64187 35.9619 27.1954C41.2932 36.1511 34.5771 39.7208 34.5771 39.7208Z" fill="white"/>
<path d="M45.4653 38.5809C45.4653 38.5809 58.4082 35.7261 51.3644 24.8334C48.8072 20.1092 52.3338 18.4234 52.3338 18.4234C52.3338 18.4234 44.0021 18.6987 47.5194 26.1908C50.3351 32.2143 49.4996 35.6343 45.4653 38.5809Z" fill="white"/>
</svg>
