<svg width="103" height="86" viewBox="0 0 103 86" fill="none" xmlns="http://www.w3.org/2000/svg">
<path d="M94.7884 0H7.51654C6.084 0 4.74287 0.378325 3.52954 1.00191L50.9456 51.9367L61.5732 40.9653C61.5732 40.9653 61.574 40.9642 61.5742 40.9637C61.5744 40.9633 61.5752 40.9628 61.5752 40.9628L98.7768 1.00279C97.5633 0.378769 96.2213 0 94.7884 0Z" fill="#008BC7"/>
<path d="M102.069 5.68701L67.0602 43.2916L102.068 80.8968C102.648 79.5934 103 78.1528 103 76.6139V9.96833C103 8.43037 102.649 6.98993 102.069 5.68701Z" fill="#008BC7"/>
<path d="M0.932692 5.68701C0.35219 6.99038 0 8.43103 0 9.96988V76.6155C0 78.1535 0.351776 79.5943 0.931865 80.8973L35.9405 43.2927L0.932692 5.68701Z" fill="#008BC7"/>
<path d="M63.7694 47.3928L53.1405 58.3656C52.5345 59.0165 51.7408 59.342 50.9473 59.342C50.1538 59.342 49.3599 59.0165 48.7541 58.3656L38.5388 47.3924L3.52954 84.9972C4.74307 85.6212 6.08503 86 7.51799 86H94.7898C96.2224 86 97.5635 85.6217 98.7768 84.9981L63.7694 47.3928Z" fill="#008BC7"/>
</svg>
