<svg width="100" height="100" viewBox="0 0 100 100" fill="none" xmlns="http://www.w3.org/2000/svg">
<path d="M50.0004 0C22.5374 0 0 22.5372 0 50C0 73.4352 16.4445 94.7235 38.2815 100V83.4579C36.1178 83.9317 34.1265 83.9455 31.9239 83.2962C28.969 82.4242 26.568 80.4558 24.7858 77.4544C23.6498 75.5379 21.6364 73.4596 19.536 73.6122L19.021 67.7757C23.5628 67.3866 27.492 70.5429 29.8243 74.4614C30.8604 76.2039 32.0529 77.2255 33.5833 77.6772C35.0627 78.1128 36.6511 77.9037 38.502 77.2499C38.9667 73.5443 40.6642 72.1573 41.9467 70.2042V70.2011C28.9233 68.2587 23.7329 61.3495 21.673 55.896C18.9432 48.6549 20.408 39.6088 25.2352 33.8921C25.329 33.7807 25.4984 33.4892 25.4328 33.2855C23.2195 26.5999 25.9165 21.0693 26.0157 20.4826C28.57 21.2379 28.9851 19.7227 37.1112 24.6597L38.5158 25.5035C39.1032 25.8537 38.9186 25.6538 39.5061 25.6096C42.8989 24.688 46.4756 24.1791 49.9996 24.1333C53.5504 24.1791 57.1042 24.688 60.6374 25.647L61.0921 25.6927C61.0524 25.6866 61.2157 25.6638 61.4896 25.5005C71.6406 19.352 71.2759 21.3615 73.9981 20.4765C74.0965 21.064 76.7576 26.6846 74.568 33.2855C74.2727 34.1949 83.3686 42.524 78.327 55.8937C76.2671 61.3495 71.0775 68.2587 58.054 70.2011V70.2042C59.7234 72.7486 61.7291 74.102 61.7185 79.351V100C83.5562 94.7235 100 73.4352 100 50C100.001 22.5372 77.4634 0 50.0004 0Z" fill="#008BC7"/>
</svg>
