<svg width="250" height="250" viewBox="0 0 250 250" fill="none" xmlns="http://www.w3.org/2000/svg">
<path d="M58.5938 125C58.5938 112.614 62.0063 101.011 67.9351 91.0757V48.9331H25.7925C9.06641 70.6558 0 97.1299 0 125C0 152.87 9.06641 179.344 25.7925 201.067H67.9351V158.924C62.0063 148.989 58.5938 137.386 58.5938 125Z" fill="#FBBD00"/>
<path d="M125 191.406L95.7031 220.703L125 250C152.871 250 179.344 240.934 201.067 224.208V182.11H158.969C148.947 188.06 137.295 191.406 125 191.406Z" fill="#0F9D58"/>
<path d="M67.9351 158.924L25.7925 201.067C29.104 205.368 32.71 209.486 36.6118 213.389C60.2212 236.998 91.6113 250 125 250V191.406C100.77 191.406 79.5327 178.359 67.9351 158.924Z" fill="#31AA52"/>
<path d="M250 125C250 117.395 249.312 109.776 247.953 102.355L246.854 96.3496H125V154.943H184.303C178.544 166.399 169.689 175.745 158.969 182.11L201.066 224.208C205.367 220.896 209.486 217.291 213.388 213.389C236.998 189.779 250 158.389 250 125Z" fill="#3C79E6"/>
<path d="M171.957 78.0435L177.135 83.2222L218.567 41.7905L213.389 36.6118C189.779 13.0024 158.389 0 125 0L95.7031 29.2969L125 58.5938C142.737 58.5938 159.414 65.501 171.957 78.0435Z" fill="#CF2D48"/>
<path d="M125 58.5938V0C91.6113 0 60.2212 13.0024 36.6113 36.6113C32.7095 40.5132 29.1035 44.6318 25.792 48.9331L67.9346 91.0757C79.5327 71.6406 100.77 58.5938 125 58.5938Z" fill="#EB4132"/>
</svg>
