<svg width="100" height="89" viewBox="0 0 100 89" fill="none" xmlns="http://www.w3.org/2000/svg">
<path d="M73.4375 0C68.0111 0 63.0361 1.71953 58.651 5.11094C54.4469 8.3623 51.6479 12.5035 50 15.5148C48.3521 12.5033 45.5531 8.3623 41.349 5.11094C36.9639 1.71953 31.9889 0 26.5625 0C11.4195 0 0 12.3861 0 28.8113C0 46.5563 14.2467 58.6971 35.8143 77.0766C39.4768 80.1979 43.6281 83.7357 47.943 87.509C48.5117 88.007 49.2422 88.2812 50 88.2812C50.7578 88.2812 51.4883 88.007 52.057 87.5092C56.3723 83.7354 60.5234 80.1977 64.1881 77.0746C85.7533 58.6971 100 46.5563 100 28.8113C100 12.3861 88.5805 0 73.4375 0Z" fill="white"/>
</svg>
