<svg width="100" height="100" viewBox="0 0 100 100" fill="none" xmlns="http://www.w3.org/2000/svg">
<path d="M91.4062 13.2812H11.7188C9.56139 13.2812 7.8125 15.0301 7.8125 17.1875V85.9375C7.8125 88.0949 9.56139 89.8438 11.7188 89.8438H91.4062C93.5636 89.8438 95.3125 88.0949 95.3125 85.9375V17.1875C95.3125 15.0301 93.5636 13.2812 91.4062 13.2812Z" fill="#E6E7E8"/>
<path d="M88.2812 10.9375H8.59375C6.86786 10.9375 5.46875 12.3366 5.46875 14.0625V82.8125C5.46875 84.5384 6.86786 85.9375 8.59375 85.9375H88.2812C90.0071 85.9375 91.4062 84.5384 91.4062 82.8125V14.0625C91.4062 12.3366 90.0071 10.9375 88.2812 10.9375Z" fill="white"/>
<path d="M45.0609 60.3125L24.2969 69.3562C23.7362 69.6004 23.1235 69.7011 22.5141 69.6494C21.9047 69.5977 21.3178 69.3951 20.8063 69.06C20.2947 68.7248 19.8746 68.2676 19.5838 67.7296C19.293 67.1916 19.1407 66.5897 19.1406 65.9781V65.9273C19.1409 65.1873 19.3641 64.4644 19.7812 63.8531C20.1983 63.2417 20.7899 62.7702 21.4789 62.5L39.4742 55.4344L21.4953 48.4812C20.8018 48.2128 20.2057 47.7408 19.7854 47.1273C19.3651 46.5137 19.1403 45.7874 19.1406 45.0437C19.1407 44.4332 19.2924 43.8323 19.5822 43.2949C19.8719 42.7575 20.2907 42.3006 20.8008 41.9651C21.3108 41.6296 21.8963 41.4261 22.5045 41.3729C23.1127 41.3196 23.7246 41.4183 24.2852 41.6601L45.0445 50.6125C45.9928 51.0217 46.8005 51.6996 47.3679 52.5626C47.9354 53.4256 48.2377 54.4359 48.2375 55.4687C48.2367 56.4976 47.9357 57.5039 47.3715 58.3643C46.8073 59.2247 46.0043 59.9017 45.0609 60.3125Z" fill="#008BC7"/>
<path d="M72.224 62.4304H54.9709C54.0113 62.4304 53.0911 62.8116 52.4126 63.4901C51.7341 64.1686 51.3529 65.0888 51.3529 66.0484C51.3529 67.0079 51.7341 67.9282 52.4126 68.6067C53.0911 69.2852 54.0113 69.6663 54.9709 69.6663H72.224C73.1835 69.6663 74.1038 69.2852 74.7823 68.6067C75.4608 67.9282 75.842 67.0079 75.842 66.0484C75.842 65.0888 75.4608 64.1686 74.7823 63.4901C74.1038 62.8116 73.1835 62.4304 72.224 62.4304Z" fill="#008BC7"/>
<path d="M88.2812 83.5938H8.59375C7.76495 83.5938 6.97009 83.2645 6.38404 82.6785C5.79799 82.0924 5.46875 81.2976 5.46875 80.4688V82.8125C5.46875 83.6413 5.79799 84.4362 6.38404 85.0222C6.97009 85.6083 7.76495 85.9375 8.59375 85.9375H88.2812C89.1101 85.9375 89.9049 85.6083 90.491 85.0222C91.077 84.4362 91.4062 83.6413 91.4062 82.8125V80.4688C91.4062 81.2976 91.077 82.0924 90.491 82.6785C89.9049 83.2645 89.1101 83.5938 88.2812 83.5938Z" fill="white"/>
<path d="M8.59375 11.9375H88.2812C88.8448 11.9375 89.3853 12.1614 89.7839 12.5599C90.1824 12.9584 90.4062 13.4989 90.4062 14.0625V21.2656H48.4375H6.46875V14.0625C6.46875 13.4989 6.69263 12.9584 7.09115 12.5599C7.48966 12.1614 8.03016 11.9375 8.59375 11.9375Z" stroke="black" stroke-width="2"/>
<path d="M74.7395 14.9085C74.3788 14.9084 74.0262 15.0152 73.7263 15.2154C73.4263 15.4157 73.1924 15.7004 73.0543 16.0336C72.9162 16.3668 72.88 16.7334 72.9502 17.0872C73.0205 17.441 73.1941 17.7659 73.4491 18.021C73.7041 18.2761 74.029 18.4499 74.3827 18.5203C74.7365 18.5907 75.1031 18.5546 75.4364 18.4167C75.7696 18.2787 76.0544 18.045 76.2548 17.7451C76.4552 17.4452 76.5622 17.0926 76.5622 16.7319C76.5622 16.2485 76.3702 15.7848 76.0284 15.4429C75.6866 15.1009 75.223 14.9087 74.7395 14.9085Z" fill="white"/>
<path d="M80.2083 14.9085C79.8476 14.9084 79.495 15.0152 79.195 15.2154C78.895 15.4157 78.6612 15.7004 78.5231 16.0336C78.3849 16.3668 78.3487 16.7334 78.419 17.0872C78.4892 17.441 78.6629 17.7659 78.9178 18.021C79.1728 18.2761 79.4977 18.4499 79.8515 18.5203C80.2052 18.5907 80.5719 18.5546 80.9051 18.4167C81.2384 18.2787 81.5232 18.045 81.7236 17.7451C81.924 17.4452 82.031 17.0926 82.031 16.7319C82.0311 16.4925 81.984 16.2554 81.8924 16.0342C81.8009 15.813 81.6666 15.612 81.4974 15.4426C81.3281 15.2733 81.1272 15.139 80.906 15.0473C80.6848 14.9557 80.4477 14.9085 80.2083 14.9085V14.9085Z" fill="#D4FBFF"/>
<path d="M85.677 14.9085C85.3163 14.9084 84.9637 15.0152 84.6638 15.2154C84.3638 15.4157 84.1299 15.7004 83.9918 16.0336C83.8537 16.3668 83.8175 16.7334 83.8877 17.0872C83.958 17.441 84.1316 17.7659 84.3866 18.021C84.6416 18.2761 84.9665 18.4499 85.3202 18.5203C85.674 18.5907 86.0406 18.5546 86.3739 18.4167C86.7071 18.2787 86.9919 18.045 87.1923 17.7451C87.3927 17.4452 87.4997 17.0926 87.4997 16.7319C87.4998 16.4925 87.4527 16.2554 87.3612 16.0342C87.2696 15.813 87.1354 15.612 86.9661 15.4426C86.7969 15.2733 86.5959 15.139 86.3747 15.0473C86.1535 14.9557 85.9165 14.9085 85.677 14.9085V14.9085Z" fill="#FA759E"/>
<path d="M45.3549 49.8953L24.5948 40.9375C24.0501 40.7048 23.4646 40.5828 22.8724 40.5786C22.2802 40.5744 21.693 40.688 21.1451 40.9129C20.5972 41.1377 20.0995 41.4693 19.681 41.8884C19.2624 42.3074 18.9314 42.8055 18.7073 43.3537C18.4831 43.9019 18.3702 44.4892 18.3751 45.0814C18.38 45.6736 18.5027 46.2589 18.736 46.8033C18.9694 47.3477 19.3086 47.8402 19.7341 48.2522C20.1595 48.6642 20.6627 48.9874 21.2143 49.2031L37.3229 55.4375L21.194 61.7703C20.642 61.9898 20.1391 62.3166 19.7144 62.7318C19.2896 63.1471 18.9516 63.6425 18.7197 64.1894C18.4878 64.7362 18.3668 65.3237 18.3636 65.9176C18.3604 66.5116 18.4751 67.1003 18.7011 67.6497C18.9271 68.199 19.2599 68.698 19.6801 69.1178C20.1004 69.5375 20.5998 69.8697 21.1493 70.0951C21.6989 70.3205 22.2877 70.4345 22.8817 70.4307C23.4757 70.4268 24.063 70.3051 24.6096 70.0727L45.3729 61.0312C46.4578 60.5588 47.381 59.7794 48.0287 58.7891C48.6765 57.7988 49.0206 56.6407 49.0186 55.4574C49.0167 54.274 48.6689 53.117 48.018 52.1288C47.367 51.1406 46.4414 50.3642 45.3549 49.8953V49.8953ZM44.7487 59.5984L23.9846 68.6398C23.5388 68.8339 23.0515 68.9129 22.5673 68.8697C22.083 68.8264 21.6174 68.6623 21.2131 68.3923C20.8087 68.1223 20.4787 67.7552 20.2531 67.3245C20.0276 66.8938 19.9137 66.4134 19.9221 65.9273C19.9202 65.3434 20.0952 64.7726 20.424 64.2901C20.7529 63.8076 21.2201 63.436 21.7643 63.2242L39.7604 56.1594C39.9069 56.1019 40.0327 56.0015 40.1213 55.8714C40.2098 55.7412 40.2569 55.5873 40.2565 55.4299C40.2561 55.2725 40.2081 55.1189 40.1189 54.9892C40.0297 54.8595 39.9033 54.7598 39.7565 54.7031L21.7776 47.75C21.2323 47.536 20.7639 47.1631 20.433 46.6798C20.1022 46.1964 19.9242 45.6248 19.9221 45.039C19.9241 44.2714 20.2288 43.5354 20.7699 42.9909C21.3111 42.4464 22.0451 42.1372 22.8127 42.1304C23.2115 42.1315 23.6058 42.2142 23.9713 42.3734L44.7354 51.3281C45.5421 51.6762 46.2295 52.2526 46.7129 52.9863C47.1963 53.72 47.4546 54.5791 47.456 55.4577C47.4574 56.3364 47.2019 57.1963 46.7209 57.9315C46.2398 58.6668 45.5543 59.2454 44.7487 59.5961V59.5984Z" fill="white"/>
<path d="M72.2237 61.6492H54.9698C53.803 61.6492 52.6841 62.1126 51.8591 62.9377C51.034 63.7627 50.5706 64.8816 50.5706 66.0484C50.5706 67.2151 51.034 68.3341 51.8591 69.1591C52.6841 69.9841 53.803 70.4476 54.9698 70.4476H72.2237C73.3904 70.4476 74.5094 69.9841 75.3344 69.1591C76.1594 68.3341 76.6229 67.2151 76.6229 66.0484C76.6229 64.8816 76.1594 63.7627 75.3344 62.9377C74.5094 62.1126 73.3904 61.6492 72.2237 61.6492V61.6492ZM72.2237 68.8851H54.9698C54.2174 68.8851 53.4959 68.5862 52.9639 68.0542C52.4319 67.5222 52.1331 66.8007 52.1331 66.0484C52.1331 65.296 52.4319 64.5745 52.9639 64.0425C53.4959 63.5105 54.2174 63.2117 54.9698 63.2117H72.2237C72.976 63.2117 73.6975 63.5105 74.2295 64.0425C74.7615 64.5745 75.0604 65.296 75.0604 66.0484C75.0604 66.8007 74.7615 67.5222 74.2295 68.0542C73.6975 68.5862 72.976 68.8851 72.2237 68.8851V68.8851Z" fill="white"/>
<path d="M55.8594 23.0469H62.6953C62.9025 23.0469 63.1012 22.9646 63.2477 22.8181C63.3943 22.6715 63.4766 22.4728 63.4766 22.2656C63.4766 22.0584 63.3943 21.8597 63.2477 21.7132C63.1012 21.5667 62.9025 21.4844 62.6953 21.4844H55.8594C55.6522 21.4844 55.4535 21.5667 55.3069 21.7132C55.1604 21.8597 55.0781 22.0584 55.0781 22.2656C55.0781 22.4728 55.1604 22.6715 55.3069 22.8181C55.4535 22.9646 55.6522 23.0469 55.8594 23.0469Z" fill="white"/>
<path d="M88.2812 10.1562H8.59375C7.55813 10.1575 6.56528 10.5694 5.83298 11.3017C5.10069 12.034 4.68874 13.0269 4.6875 14.0625V82.8125C4.68874 83.8481 5.10069 84.841 5.83298 85.5733C6.56528 86.3056 7.55813 86.7175 8.59375 86.7188H88.2812C89.3169 86.7175 90.3097 86.3056 91.042 85.5733C91.7743 84.841 92.1863 83.8481 92.1875 82.8125V14.0625C92.1863 13.0269 91.7743 12.034 91.042 11.3017C90.3097 10.5694 89.3169 10.1575 88.2812 10.1562V10.1562ZM88.2812 85.1562H8.59375C7.97215 85.1562 7.37601 84.9093 6.93647 84.4698C6.49693 84.0302 6.25 83.4341 6.25 82.8125V23.0469H52.0836C52.2908 23.0469 52.4895 22.9646 52.636 22.8181C52.7825 22.6715 52.8648 22.4728 52.8648 22.2656C52.8648 22.0584 52.7825 21.8597 52.636 21.7132C52.4895 21.5667 52.2908 21.4844 52.0836 21.4844H6.25V14.0625C6.25 13.4409 6.49693 12.8448 6.93647 12.4052C7.37601 11.9657 7.97215 11.7188 8.59375 11.7188H88.2812C88.9029 11.7188 89.499 11.9657 89.9385 12.4052C90.3781 12.8448 90.625 13.4409 90.625 14.0625V21.4844H66.6156C66.4084 21.4844 66.2097 21.5667 66.0632 21.7132C65.9167 21.8597 65.8344 22.0584 65.8344 22.2656C65.8344 22.4728 65.9167 22.6715 66.0632 22.8181C66.2097 22.9646 66.4084 23.0469 66.6156 23.0469H90.625V82.8125C90.625 83.4341 90.3781 84.0302 89.9385 84.4698C89.499 84.9093 88.9029 85.1562 88.2812 85.1562V85.1562Z" fill="white"/>
</svg>
